<?xml version="1.0" encoding="UTF-8" standalone="no"?>
<svg xmlns="http://www.w3.org/2000/svg" width="787" height="240" viewBox="0 0 208.215 63.44">
  <defs>
    <style>.cls-2{fill:#fff}.cls-3{fill:#010101}.cls-4{fill:#50b2ce}.cls-5{fill:#6ab345}.cls-6{fill:#74cbf1}</style>
  </defs>
  <path style="fill:#000" d="M20.112 345.943c.031-1.387-.069-2.775-.711-3.554-.644-.775-2.098-1.048-2.742-1.048-2.569 0-3.585 1.557-3.691 1.894-.097.27-.707.881-.707 5.076v6.53c0 5.991 1.963 6.701 4.359 6.701.952 0 3.831-.336 3.864-5.109h3.214c.136 7.721-5.311 7.721-6.904 7.721-3.044 0-7.716-.206-7.716-9.682v-6.907c0-6.902 3.043-8.869 7.848-8.869 4.842 0 6.705 2.51 6.399 7.247z"/>
  <path style="fill:#000" d="M26.405 355.35c0-5.005.577-9.136 6.496-9.136s6.5 4.13 6.5 9.136c0 7.545-2.878 8.631-6.5 8.631s-6.496-1.086-6.496-8.631m10.083-1.183c0-4.672-1.453-5.683-3.587-5.683-2.13 0-3.587 1.011-3.587 5.683 0 5.551.712 7.547 3.587 7.547 2.879 0 3.587-1.996 3.587-7.547"/>
  <path style="fill:#000" d="M51.859 346.552h2.773v18.816c0 3.825-2.54 4.738-6.298 4.738-2.84 0-5.412-1.422-5.175-4.568h3.114c.034 1.595 1.079 2.469 2.604 2.469 1.926 0 2.982-1.186 2.982-2.944v-3.556h-.106c-.71 1.357-2.264 2.134-3.755 2.134-4.637 0-5.551-3.99-5.551-9.073 0-7.851 3.96-8.354 5.346-8.354 1.797 0 3.212.776 3.995 2.434h.072zm-3.252 1.964c-3.147 0-3.25 3.789-3.25 6.052 0 5.486 1.254 6.772 3.32 6.772 3.348 0 3.245-3.96 3.245-6.33 0-2.537.17-6.494-3.315-6.494"/>
  <path style="fill:#000" d="M68.407 363.641v-11.842c0-1.829-.642-3.315-3.011-3.315-3.048 0-3.49 2.703-3.49 5.038v10.119h-2.771v-13.536c0-1.186-.068-2.369-.173-3.553h2.944v2.2h.137c1.079-1.932 2.368-2.538 4.568-2.538 3.653 0 4.573 2.199 4.573 5.585v11.842z"/>
  <path style="fill:#000" d="M76.087 339.209h3.114v2.976h-3.114zm2.945 24.433h-2.776v-17.089h2.776z"/>
  <path style="fill:#000" d="M649.011 177.32v8.569h-40.81v-9.834l28.149-45.848v-.27h-26.76v-8.566h38.519v9.6l-28.518 46.419z"/>
  <path style="fill:#000" d="M106.104 361.171h-.072c-.841 1.963-2.162 2.81-4.294 2.81-3.622 0-4.667-2.339-4.667-5.618 0-5.18 5.073-5.414 8.961-5.315.072-2.263.107-4.737-2.873-4.737-1.863 0-2.842 1.249-2.673 3.044h-3.012c.133-3.824 2.167-5.14 5.786-5.14 4.399 0 5.553 2.27 5.553 5.14v8.227c.145 1.537.25 2.878.338 4.06h-3.047zm-6.26-2.605c0 1.657.811 3.148 2.67 3.148 1.695 0 3.792-1.05 3.518-6.568-2.633.039-6.188-.201-6.188 3.42"/>
  <path style="fill:#000" d="M122.585 363.641v-11.842c0-1.829-.643-3.315-3.01-3.315-3.049 0-3.489 2.703-3.489 5.038v10.119h-2.773v-13.536c0-1.186-.067-2.369-.167-3.553h2.94v2.2h.14c1.08-1.932 2.368-2.538 4.568-2.538 3.657 0 4.567 2.199 4.567 5.585v11.842z"/>
  <path style="fill:#000" d="M130.843 346.552v-3.285l2.776-1.25v4.535h3.722v2.096h-3.722v10.458c0 1.084 0 2.47 2.539 2.47.205 0 .644-.068 1.25-.135v2.134c-.914.066-1.826.268-2.741.268-2.639 0-3.824-1.083-3.824-3.047v-12.148h-2.81v-2.096z"/>
  <circle cx="-7.368" cy="351.296" r="31.455" style="fill:#010101"/>
  <path style="fill:#50b2ce" d="M-36.37 369.31c0 1.494-.64 3.197-2.45 3.197-1.81 0-2.347-1.703-2.347-3.197v-4.524a58.4 58.4 0 0 1-13.537-8.645v12.637c0 9.168 7.25 13.751 15.885 13.751 8.368 0 15.71-4.412 15.979-13.242-4.262-.091-8.876-.955-13.53-2.57z"/>
  <path style="fill:#50b2ce" d="M-27.846 358.242h-8.525v.006c2.03 1.08 3.995 1.675 5.796 1.673 1.984 0 2.741-.667 2.729-1.68"/>
  <path style="fill:#50b2ce" d="M-47.25 341.581c-5.553.006-1.548 5.429 2.224 9.58a42.8 42.8 0 0 0 3.859 3.758v-11.417c-.316-.189-.636-.363-.96-.527q-2.668-1.4-5.123-1.394"/>
  <path style="fill:#50b2ce" d="M-41.167 333.274c0-1.49.536-3.2 2.348-3.2 1.81 0 2.449 1.71 2.449 3.2v3.435a50.4 50.4 0 0 1 8.022 4.706h5.52v-7.607c0-9.166-7.46-13.749-15.99-13.749-8.12 0-15.015 4.053-15.807 12.158a45.35 45.35 0 0 1 13.458 2.548z"/>
  <path style="fill:#6ab345" d="M-14.604 354.667l-14.948.023c1.002 1.333 1.694 2.597 1.707 3.553h5.018v10.535c0 .175-.008.34-.013.51.265.007.525.008.79.008 5.198-.008 9.126-1.02 10.76-3.303 1.64-2.347.857-6.034-3.314-11.326"/>
  <path style="fill:#6ab345" d="M-54.625 332.218c-.388-.011-.769-.016-1.15-.016-12.354.023-14.972 6.974-4.116 18.913a56.6 56.6 0 0 0 5.187 5.026v-22.332c0-.548.028-1.073.079-1.59"/>
  <path style="fill:#6ab345" d="M-36.37 336.71a48.9 48.9 0 0 0-4.797-1.943v8.736a18.08 18.08 0 0 1 3.895 3.084l15.021-.022a51.5 51.5 0 0 0-6.098-5.149h-8.022z"/>
  <path style="fill:#6ab345" d="M-36.37 366.718v-8.47a27.27 27.27 0 0 1-4.797-3.33v9.868q2.397 1.096 4.797 1.932"/>
  <path style="fill:#74cbf1" d="M-41.167 354.918a42.67 42.67 0 0 1-3.86-3.758c-3.77-4.15-7.777-9.573-2.223-9.58q2.455-.004 5.122 1.394c.325.164.644.338.96.527v-8.736a45.37 45.37 0 0 0-13.457-2.548c-.05.517-.08 1.042-.08 1.591v22.332a58.4 58.4 0 0 0 13.538 8.645z"/>
  <path style="fill:#74cbf1" d="M-36.37 341.416h8.022a50.36 50.36 0 0 0-8.022-4.706z"/>
  <path style="fill:#74cbf1" d="M-22.828 358.242h-5.018c.012 1.013-.744 1.68-2.728 1.68-1.801.002-3.766-.594-5.797-1.673v8.469c4.654 1.615 9.269 2.478 13.53 2.57.005-.17.013-.335.013-.51z"/>
  <path style="fill:#fff" d="M-4.65 371.973a2.815 2.815 0 1 1 .824-1.996 2.706 2.706 0 0 1-.824 1.996m-3.701-3.704a2.337 2.337 0 0 0-.704 1.712 2.365 2.365 0 0 0 .7 1.724 2.413 2.413 0 0 0 3.425 0 2.36 2.36 0 0 0 .705-1.724 2.414 2.414 0 0 0-4.126-1.712m1.655.157a2.35 2.35 0 0 1 .843.111.766.766 0 0 1 .479.783.673.673 0 0 1-.302.609 1.164 1.164 0 0 1-.446.15.75.75 0 0 1 .53.302.85.85 0 0 1 .168.478v.226c0 .072.002.148.007.23a.496.496 0 0 0 .027.16l.02.038h-.528c-.003-.01-.006-.02-.008-.03l-.007-.035-.012-.1v-.244a.757.757 0 0 0-.291-.707 1.32 1.32 0 0 0-.605-.098h-.43v1.214h-.544v-3.087zm.587.487a1.416 1.416 0 0 0-.659-.115h-.465v1.118h.492a1.476 1.476 0 0 0 .518-.069.555.555 0 0 0 .114-.934"/>
</svg>