<?xml version="1.0" encoding="utf-8"?><svg version="1.1" xmlns="http://www.w3.org/2000/svg" viewBox="0 0 713.39 707.4"><linearGradient id="a" x1="356.48" y1="493.13" x2="356.48" y2="1080.9" gradientTransform="matrix(1 0 0 1 0.14 -373.55)"><stop offset="0" stop-color="#F7E830"/><stop offset="1" stop-color="#FDCB06"/></linearGradient><path fill="url(#a)" stroke="#FCD109" stroke-width="0.094" d="M712.87 122.59c-.3-1-.6-2-1-3-236.9.1-473.7 0-710.5.1-.6.7-1 1.4-1.1 2.3 0 183.7 0 367.3-.1 551 1.5 9.8 6.9 18.7 14.1 25.4.3.1 1 .2 1.3.3 3.7 3.9 9 5.8 14 7.6 3.7-.2 7.3 1.4 11 1h294c2.8-.1 5.7.4 8.4-.7.1-.4.2-1.1.3-1.5.1-.5.2-1.6.3-2.2 6.3-35.2 12.4-70.5 19.1-105.7l.6-4.5c-27.2-.1-54.5 0-81.7-.1-6.6-.2-13.4 0-20-.8-11.3-.5-22.7-.1-34-1.2-14 0-27.9-1.3-41.9-1.3-11-1.1-22.1-.7-33.2-1.2-7.2-.9-14.6-.5-21.9-.8-11.9-1.3-24-.4-35.9-1.7-12.6.1-25.2-1-37.8-1.3.1-.1.2-.5.2-.6 4.2.1 8.3-.2 12.5-.3 9.3-1.2 18.7-.4 28-1.7 9.7 0 19.3-1.3 29-1.3 8.6-1.2 17.3-.5 25.9-1.7 10.1 0 20-1.3 30.1-1.4 8.3-1.1 16.7-.5 25-1.6 9.7.1 19.3-1.4 29-1.3 9.5-1.1 19.2-.8 28.7-1.8-.9-3.7-1.6-7.4-2.4-11.1-.7-2.3-3.5-1.8-5.3-2.1-21.7-3.1-43.3-6.2-64.9-9.2 1.4-1.1 3.3-.6 4.9-.8 16.8-1.3 33.5-2.8 50.3-4 3.8-.2 7.5-.9 11.3-1-1.7-5.2-2.7-10.9-5-15.7-35.9-5.5-71.8-10.4-107.6-16.3 9.3-1.5 18.7-2.2 28-3.2l.8-.3c29.7-3.1 59.5-6.6 89.2-9.5 37.7-.2 75.3-.1 113 0 1.2-.2 3.3.4 3.5-1.3 3.1-16.2 6.1-32.4 9.2-48.6 4.3-22.5 11.1-44.7 21.6-65.2 16.5-33 42.6-61 74.4-79.6 29.7-17.4 64.1-25.8 98.3-27.4 11.1-1 22.3-.7 33.3.7 7.2 1.7 14.6 3.7 20.3 8.6 4.7 3.8 7.5 9.4 9.6 15 4.6 13.3 7.2 27.1 9.4 41 .1 5.6 1.1 11.9-1.9 17-2.8 5-8.4 7.4-13.7 8.9-19.3 5-39.5.3-58.8 5-15.9 3.4-30.7 12.2-40.8 24.9-11.9 14.8-18.2 33.2-21.7 51.6-2.7 16.4-6.1 32.8-8.8 49.3 19 .1 38.1-.1 57.2.1 7.6 0 15.4 4.2 18.5 11.4 4 9.2 3.1 19.6 1.8 29.3-1.6 10.9-4.2 21.7-9.1 31.7-4.1 8.5-10.9 16.3-20.2 19.3-4.8 1.9-10 1.5-15.1 1.5-16.8 0-33.6.2-50.4 0-2.7 12.3-4.5 24.9-6.9 37.4-4.4 24.3-8.7 48.7-13.1 73.1-.1.8-.2 2.5-.2 3.4 7.9.4 15.8 0 23.7.2 58.6 0 117.3-.1 176 0 6.3.2 12.7-1.3 18.2-4.4 3.3-1.2 5.3-4.1 8.2-5.7 2.8-1.6 3.6-4.9 6-7 2.6-4.6 5.3-9.4 5.5-14.8.3 0 1.1-.1 1.5-.2C712.77 490.59 713.07 306.59 712.87 122.59z"/><radialGradient id="b" cx="353.42" cy="761.21" r="478.08" gradientTransform="matrix(1 0 0 1 0.14 -373.55)"><stop offset=".596" stop-color="#F29405"/><stop offset=".736" stop-color="#F7D01E"/><stop offset="1" stop-color="#FDCB06"/></radialGradient><path fill="url(#b)" stroke="#FCD109" stroke-width=".094" d="M711.87 107.79c-29.1.1-58.1-.1-87.2.1-.5-4-.2-8-.3-11.9 0-16-.2-32-.1-48 0-1.3.3-2.4 1-3.5 2.1-4.2 3.7-9.3 8.5-11.2 8.9-3.5 18.2-5.9 27.1-9.4.3-2 .2-4.3-1.6-5.6-12-4.3-23.9-8.9-35.8-13.3-3.7-1.8-7.8-2.8-11.8-3.4h-511.1c-2.2.1-4.3 1.2-6.5 1.7-12.8 4.9-25.7 9.6-38.5 14.5-1.7.3-2.6 1.8-3.5 3.1.1.8.2 2.2.2 3 8.8 3.7 18.2 5.8 27.1 9.4 4.8 1.9 6.3 7.1 8.4 11.3l.7.7c.7 5.2.2 10.5.4 15.7-.3 15.6.3 31.3-.4 46.9-29.1 0-58.2-.2-87.3 0-.5 1.8.4 3.3 2.3 2.8 31.4-.2 62.7.2 94.1-.3 46.7 0 93.3.1 140 0l.7-.3c2.1.5 4.2.3 6.4.3 84.6 0 169.2.1 253.9 0 26.6.1 53.3 0 80 0 44 0 88.1.4 132.1.2 1.3-.3 1.7-1.2 1.2-2.8-.1-1.6.5-3.8-1.2-4.8-7-3.3-13-8.4-19.7-12.4-2.4-2-5.5-3.1-7.3-5.8-6.9-3.9-13.3-8.7-20.1-13-1.3-.8-2.3-2.1-3.4-3.2.6-2.1.8-4.4.8-6.6-.1-12.7 0-25.4-.1-38.1.3-2 .2-4.3-1.6-5.6-12-4.3-23.9-8.9-35.8-13.3-3.7-1.8-7.8-2.8-11.8-3.4h-511.1c-2.2.1-4.3 1.2-6.5 1.7z"/><path fill="#0D69B3" stroke="#0D69B3" stroke-width=".094" d="M486.27 304.69c29.7-17.4 64.1-25.8 98.3-27.4 11.1-1 22.3-.7 33.3.7 7.2 1.7 14.6 3.7 20.3 8.6-2.9.2-5.7-1.1-8.6-1.5-8.2-1.6-16.7-1-25-1.2-24.1 0-48.4 1.9-71.7 8.5-12.2 3.7-24.4 8-35.5 14.4-19.2 10.6-36.5 24.6-50.5 41.4-25 28.7-39.7 65.1-46.8 102.2-3.4 19.9-7.3 39.7-10.4 59.7-5 .5-10.1.2-15.1.2-22-.1-44-.2-66-.4-4.7.2-9.3-.9-14-.6-40 .2-80-.1-120-.1l.8-.3c29.7-3.1 59.5-6.6 89.2-9.5 37.7-.2 75.3-.1 113 0 1.2-.2 3.3.4 3.5-1.3 3.1-16.2 6.1-32.4 9.2-48.6 4.3-22.5 11.1-44.7 21.6-65.2 16.5-33 42.6-61 74.4-79.6z"/><path fill="#107BD4" stroke="#107BD4" stroke-width=".094" d="M532.87 292.39c23.3-6.6 47.6-8.5 71.7-8.5 8.3.2 16.8-.4 25 1.2 2.9.4 5.7 1.7 8.6 1.5 4.7 3.8 7.5 9.4 9.6 15 4.6 13.3 7.2 27.1 9.4 41 .1 5.6 1.1 11.9-1.9 17-2.8 5-8.4 7.4-13.7 8.9-19.3 5-39.5.3-58.8 5-15.9 3.4-30.7 12.2-40.8 24.9-11.9 14.8-18.2 33.2-21.7 51.6-2.7 16.4-6.1 32.8-8.8 49.3-1.2 3.7-1.9 7.7-2.6 11.6 18.9.3 37.8 0 56.7.2 7.2-.2 14.4.2 21.6-.3 4 9.2 3.1 19.6 1.8 29.3-1.6 10.9-4.2 21.7-9.1 31.7-4.1 8.5-10.9 16.3-20.2 19.3-4.8 1.9-10 1.5-15.1 1.5-16.8 0-33.6.2-50.4 0-2.7 12.3-4.5 24.9-6.9 37.4-4.4 24.3-8.7 48.7-13.1 73.1-.1.8-.2 2.5-.2 3.4v.1c-43.7 0-87.3.1-131 0 .1-.4.2-1.1.3-1.5.1-.5.2-1.6.3-2.2.1.8.2 2.3.3 3 2.7.3 7.6 1.7 8.3-2.2 6.8-36.8 13.1-73.8 20.1-110.6-2.7-.6-5.5-.6-8.3-.1-.4 1.4-.8 2.8-1.3 4.2l.6-4.5c-27.2-.1-54.5 0-81.7-.1-6.6-.2-13.4 0-20-.8-11.3-.5-22.7-.1-34-1.2-14 0-27.9-1.3-41.9-1.3-11-1.1-22.1-.7-33.2-1.2-7.2-.9-14.6-.5-21.9-.8-11.9-1.3-24-.4-35.9-1.7-12.6.1-25.2-1-37.8-1.3.1-.1.2-.5.2-.6 4.2.1 8.3-.2 12.5-.3 9.3-1.2 18.7-.4 28-1.7 9.7 0 19.3-1.3 29-1.3 8.6-1.2 17.3-.5 25.9-1.7 10.1 0 20-1.3 30.1-1.4 8.3-1.1 16.7-.5 25-1.6 9.7.1 19.3-1.4 29-1.3 9.5-1.1 19.2-.8 28.7-1.8-.9-3.7-1.6-7.4-2.4-11.1-.7-2.3-3.5-1.8-5.3-2.1-21.7-3.1-43.3-6.2-64.9-9.2 1.4-1.1 3.3-.6 4.9-.8 16.8-1.3 33.5-2.8 50.3-4 3.8-.2 7.5-.9 11.3-1-1.7-5.2-2.7-10.9-5-15.7-35.9-5.5-71.8-10.4-107.6-16.3 9.3-1.5 18.7-2.2 28-3.2 40 0 80 .3 120 .1 4.7-.3 9.3.8 14 .6 22 .2 44 .3 66 .4 5 0 10.1.3 15.1-.2 3.1-20 7-39.8 10.4-59.7 7.1-37.1 21.8-73.5 46.8-102.2 14-16.8 31.3-30.8 50.5-41.4 11.1-6.4 23.3-10.7 35.5-14.4z"/><path fill="#0D69B3" stroke="#0D69B3" stroke-width=".094" d="M511.47 499.29c19 .1 38.1-.1 57.2.1 7.6 0 15.4 4.2 18.5 11.4-7.2.5-14.4.1-21.6.3-18.9-.2-37.8.1-56.7-.2.7-3.7 1.4-7.7 2.6-11.6zM363.97 592.99c2.8-.5 5.6-.5 8.3.1-7 36.8-13.3 73.8-20.1 110.6-.7 3.9-5.6 2.5-8.3 2.2-.1-.7-.2-2.2-.3-3 6.3-35.2 12.4-70.5 19.1-105.7.4-1.4.8-2.8 1.3-4.2z"/></svg>